<svg width="215" height="26" viewBox="0 0 215 26" fill="none" xmlns="http://www.w3.org/2000/svg">
<path d="M4.27408 14.5064C3.32484 12.8623 3.88816 10.7599 5.53229 9.8107L13.11 5.4357L11.7038 3L4.12604 7.375C1.13671 9.10089 0.112495 12.9233 1.83839 15.9127C3.56428 18.902 7.38672 19.9262 10.376 18.2003L16.6006 14.6066L15.1944 12.1709L8.96979 15.7646C7.32566 16.7139 5.22332 16.1505 4.27408 14.5064Z" fill="black"/>
<path d="M19.4691 11.4936C20.4183 13.1377 19.855 15.2401 18.2109 16.1893L10.6332 20.5643L12.0394 23L19.6171 18.625C22.6065 16.8991 23.6307 13.0767 21.9048 10.0873C20.1789 7.09801 16.3565 6.07379 13.3671 7.79968L7.14257 11.3934L8.54882 13.8291L14.7734 10.2354C16.4175 9.28614 18.5199 9.84946 19.4691 11.4936Z" fill="black"/>
<path d="M4.27408 14.5064C3.32484 12.8623 3.88816 10.7599 5.53229 9.8107L13.11 5.4357L11.7038 3L4.12604 7.375C1.13671 9.10089 0.112495 12.9233 1.83839 15.9127C3.56428 18.902 7.38672 19.9262 10.376 18.2003L16.6006 14.6066L15.1944 12.1709L8.96979 15.7646C7.32566 16.7139 5.22332 16.1505 4.27408 14.5064Z" stroke="black" stroke-width="0.5" stroke-linecap="square"/>
<path d="M19.4691 11.4936C20.4183 13.1377 19.855 15.2401 18.2109 16.1893L10.6332 20.5643L12.0394 23L19.6171 18.625C22.6065 16.8991 23.6307 13.0767 21.9048 10.0873C20.1789 7.09801 16.3565 6.07379 13.3671 7.79968L7.14257 11.3934L8.54882 13.8291L14.7734 10.2354C16.4175 9.28614 18.5199 9.84946 19.4691 11.4936Z" stroke="black" stroke-width="0.5" stroke-linecap="square"/>
<g style="mix-blend-mode:multiply">
<path d="M36.7682 20.891C35.1582 20.891 33.2492 20.546 31.5932 19.511V15.141H32.9962C33.5942 18.108 35.3652 19.488 37.5732 19.488C38.9992 19.488 40.0572 18.844 40.0572 17.717C40.0572 16.544 39.4592 16.061 38.6312 15.624L34.7442 13.692C32.5132 12.588 31.5472 10.771 31.5472 9.184C31.5472 6.493 33.5252 4.009 38.0102 4.009C39.7582 4.009 41.4832 4.308 42.8402 4.952V8.839H41.4602C40.6092 6.125 38.9072 5.343 37.2282 5.343C35.6872 5.343 34.9512 6.079 34.9512 7.045C34.9512 8.011 35.5952 8.701 36.5382 9.138L40.2182 10.886C41.7822 11.622 43.5992 12.703 43.5992 15.371C43.5992 18.568 41.0462 20.891 36.7682 20.891ZM53.0058 20.891C48.9348 20.891 46.2668 18.683 46.2668 14.497V8.402C46.2668 6.24 45.8528 5.872 44.0588 5.665V4.4H52.7298V5.665C50.8898 5.849 50.5218 6.309 50.5218 8.402V14.083C50.5218 17.211 52.1088 18.545 54.2248 18.545C56.3638 18.545 57.7208 17.211 57.7208 14.083V8.402C57.7208 6.24 57.3068 5.872 55.5128 5.665V4.4H61.7458V5.665C60.0438 5.826 59.5608 6.24 59.5608 7.666V14.083C59.5608 18.407 57.4678 20.891 53.0058 20.891ZM62.4427 20.5V19.235C64.2827 19.051 64.6507 18.614 64.6507 16.498V8.402C64.6507 6.24 64.2137 5.826 62.4427 5.665V4.4H70.6997C74.8627 4.4 77.4847 5.803 77.4847 9.069C77.4847 12.151 75.0927 13.945 70.6077 13.945H68.9057V16.498C68.9057 18.821 69.4347 19.166 71.6887 19.235V20.5H62.4427ZM68.9057 12.565H69.8027C71.7807 12.565 72.8847 11.162 72.8847 9.046C72.8847 6.976 71.8037 5.78 69.7567 5.78H68.9057V12.565ZM91.724 15.095H93.012L92.368 20.5H78.407V19.235C80.247 19.028 80.615 18.614 80.615 16.498V8.402C80.615 6.24 80.201 5.872 78.407 5.665V4.4H92.23L92.414 9.322H91.149C90.252 6.309 89.815 5.78 87.515 5.78H84.87V11.461H85.997C87.538 11.461 87.791 10.978 88.251 8.816H89.309V15.44H88.251C87.791 13.209 87.492 12.772 85.997 12.772H84.87V18.2C84.87 18.706 85.169 19.12 85.721 19.12H86.779C90.045 19.12 90.367 18.683 91.724 15.095ZM94.2815 20.5V19.235C96.1215 19.074 96.4895 18.614 96.4895 16.498V8.402C96.4895 6.24 96.0755 5.826 94.2815 5.665V4.4H103.113C107.276 4.4 109.277 5.711 109.277 8.402C109.277 10.656 107.276 12.174 104.079 12.289L103.435 12.312V12.496L103.757 12.519C106.287 12.634 107.529 12.933 108.403 15.072L109.346 17.257C109.783 18.292 110.289 18.936 111.577 19.258V20.5H106.057C105.62 19.994 105.229 19.028 104.907 18.131L103.895 15.233C103.366 13.738 102.699 12.956 101.112 12.956H100.744V16.498C100.744 18.637 101.181 19.074 102.952 19.235V20.5H94.2815ZM100.744 11.806H101.664C103.757 11.806 104.7 10.564 104.7 8.632C104.7 7.482 104.286 5.78 102.101 5.78H100.744V11.806ZM124.215 20.891C119.661 20.891 116.51 17.602 116.51 12.841C116.51 7.597 120.075 4.009 125.273 4.009C127.159 4.009 128.999 4.423 130.379 5.159V10.15H129.114C128.562 7.528 127.113 6.171 124.859 6.171C122.099 6.171 120.443 8.011 120.443 11.139C120.443 14.704 122.674 17.28 125.779 17.28C127.596 17.28 128.93 16.544 129.804 15.072L130.862 15.601C129.965 19.028 127.642 20.891 124.215 20.891ZM140.989 20.891C135.722 20.891 132.249 17.533 132.249 12.45C132.249 7.367 135.722 4.009 140.989 4.009C146.256 4.009 149.729 7.367 149.729 12.45C149.729 17.533 146.256 20.891 140.989 20.891ZM140.989 19.419C143.68 19.419 145.014 17.119 145.014 12.45C145.014 7.781 143.68 5.481 140.989 5.481C138.298 5.481 136.964 7.781 136.964 12.45C136.964 17.119 138.298 19.419 140.989 19.419ZM150.637 20.5V19.235C152.477 19.028 152.845 18.614 152.845 16.498V8.402C152.845 6.24 152.431 5.872 150.637 5.665V4.4H158.733C164.552 4.4 167.887 7.413 167.887 12.45C167.887 17.487 164.552 20.5 158.733 20.5H150.637ZM157.951 19.12H158.273C161.562 19.12 163.149 16.889 163.149 12.45C163.149 8.011 161.562 5.78 158.273 5.78H157.1V18.177C157.1 18.683 157.399 19.12 157.951 19.12ZM175.265 8.402V16.498C175.265 18.637 175.702 19.028 177.473 19.235V20.5H168.802V19.235C170.642 19.028 171.01 18.614 171.01 16.498V8.402C171.01 6.24 170.596 5.872 168.802 5.665V4.4H177.473V5.665C175.633 5.849 175.265 6.309 175.265 8.402ZM192.682 20.615L183.85 10.219C183.045 9.276 182.884 8.839 182.7 8.425L182.585 8.471C182.677 8.885 182.746 9.345 182.746 10.564V17.464C182.746 18.752 183.367 19.074 184.816 19.235V20.5H178.859V19.235C180.699 19.028 181.067 18.614 181.067 16.498V6.953C180.239 5.964 179.894 5.803 178.997 5.665V4.4H184.701L190.888 12.082C191.854 13.301 192.153 13.876 192.429 14.819L192.567 14.773C192.475 13.853 192.452 13.14 192.452 11.944V8.103C192.452 6.171 192.061 5.78 190.474 5.665V4.4H196.339V5.665C194.499 5.803 194.131 6.309 194.131 8.402V20.615H192.682ZM213.585 12.772V13.876C212.665 13.876 212.251 14.451 212.251 15.739V19.12C210.825 20.247 208.64 20.891 206.225 20.891C200.452 20.891 197.14 17.809 197.14 12.45C197.14 7.16 200.866 4.009 207.168 4.009C208.778 4.009 210.641 4.262 212.251 4.699V9.782H210.986C210.25 6.769 208.939 5.458 206.662 5.458C203.511 5.458 201.74 7.965 201.74 12.45C201.74 16.659 203.511 19.304 206.34 19.304C207.444 19.304 208.203 19.074 208.709 18.591V15.578C208.686 14.474 208.088 14.06 206.386 13.945L206.041 13.922V12.772H213.585Z" fill="black"/>
</g>
</svg>
